<svg width="500" height="500" viewBox="0 0 500 500" fill="none" xmlns="http://www.w3.org/2000/svg">
<rect width="500" height="500" rx="120" fill="white"/>
<g clip-path="url(#clip0_125_66)">
<path d="M127.235 83C103.271 83 85.5372 103.975 86.3312 126.723C87.0941 148.576 86.1032 176.881 78.978 199.963C71.8314 223.113 59.7433 237.777 40 239.66V260.916C59.7433 262.799 71.8314 277.463 78.978 300.614C86.1032 323.696 87.0941 351.999 86.3312 373.853C85.5372 396.597 103.271 417.576 127.239 417.576H372.796C396.762 417.576 414.491 396.601 413.697 373.853C412.935 352 413.925 323.696 421.05 300.614C428.201 277.465 440.257 262.798 460 260.916V239.66C440.257 237.777 428.201 223.113 421.052 199.963C413.925 176.885 412.935 148.577 413.697 126.723C414.491 103.979 396.762 83 372.796 83H127.232H127.235ZM324.747 288.953C324.747 320.275 301.384 339.271 262.613 339.271H196.611C194.723 339.27 192.913 338.52 191.578 337.185C190.244 335.85 189.494 334.04 189.494 332.152V168.424C189.494 167.489 189.678 166.563 190.035 165.699C190.393 164.835 190.917 164.051 191.578 163.389C192.239 162.728 193.024 162.204 193.888 161.846C194.752 161.488 195.677 161.304 196.612 161.304H262.236C294.564 161.304 315.781 178.817 315.781 205.704C315.781 224.576 301.507 241.471 283.324 244.429V245.415C308.08 248.131 324.747 265.273 324.747 288.953ZM255.414 183.871H217.783V237.027H249.48C273.981 237.027 287.493 227.16 287.493 209.523C287.493 192.997 275.873 183.871 255.414 183.871ZM217.783 258.119V316.697H256.8C282.309 316.697 295.824 306.461 295.824 287.223C295.824 267.982 281.933 258.115 255.16 258.115H217.783V258.119Z" fill="#7E13F8"/>
</g>
<defs>
<clipPath id="clip0_125_66">
<rect width="420" height="334.688" fill="white" transform="translate(40 83)"/>
</clipPath>
</defs>
</svg>
