<svg width="60" height="60" viewBox="0 0 60 60" fill="none" xmlns="http://www.w3.org/2000/svg">
<path d="M11.0662 51.0019L6.855 3.75H53.145L48.9281 50.9944L29.9719 56.25L11.0662 51.0019Z" fill="#1572B6"/>
<path d="M30 52.2346L45.3188 47.9877L48.9225 7.61523H30V52.2346Z" fill="#33A9DC"/>
<path d="M30 24.7339H37.6688L38.1975 18.7995H30V13.0039H44.5312L44.3925 14.5583L42.9694 30.5295H30V24.7339Z" fill="white"/>
<path d="M30.0356 39.7839L30.0094 39.7914L23.5556 38.0477L23.1431 33.4258H17.325L18.1369 42.5252L30.0075 45.8214L30.0356 45.8139V39.7839Z" fill="#EBEBEB"/>
<path d="M37.1756 30.2832L36.4781 38.0438L30.015 39.7876V45.8176L41.895 42.5251L41.9831 41.5463L42.99 30.2832H37.1756Z" fill="white"/>
<path d="M30.0206 13.0039V18.7995H16.0219L15.9056 17.4964L15.6413 14.5583L15.5025 13.0039H30.0206ZM30 24.7339V30.5295H23.6269L23.5106 29.2264L23.2481 26.2883L23.1094 24.7339H30Z" fill="#EBEBEB"/>
</svg>
