<svg width="500" height="500" viewBox="0 0 500 500" fill="none" xmlns="http://www.w3.org/2000/svg">
<rect width="500" height="500" rx="120" fill="white"/>
<path d="M117.464 397.013L87.985 66.25H412.015L382.497 396.961L249.803 433.75L117.464 397.013Z" fill="#1572B6"/>
<path d="M250 405.636L357.231 375.908L382.457 93.3005H250V405.636Z" fill="#33A9DC"/>
<path d="M250 213.132H303.681L307.382 171.591H250V131.022H351.719L350.748 141.903L340.786 253.701H250V213.132Z" fill="white"/>
<path d="M250.249 318.486L250.066 318.539L204.889 306.333L202.002 273.979H161.275L166.958 337.675L250.053 360.749L250.249 360.696V318.486Z" fill="#EBEBEB"/>
<path d="M300.229 251.982L295.347 306.306L250.105 318.513V360.723L333.265 337.675L333.882 330.824L340.93 251.982H300.229Z" fill="white"/>
<path d="M250.144 131.022V171.591H152.153L151.339 162.469L149.489 141.903L148.518 131.022H250.144ZM250 213.132V253.701H205.388L204.574 244.579L202.737 224.013L201.766 213.132H250Z" fill="#EBEBEB"/>
</svg>
