<svg width="500" height="500" viewBox="0 0 500 500" fill="none" xmlns="http://www.w3.org/2000/svg">
<rect width="500" height="500" rx="120" fill="white"/>
<g clip-path="url(#clip0_125_68)">
<path d="M180 460C218.64 460 250 428.64 250 390V320H180C141.36 320 110 351.36 110 390C110 428.64 141.36 460 180 460Z" fill="#0ACF83"/>
<path d="M110 250C110 211.36 141.36 180 180 180H250V320H180C141.36 320 110 288.64 110 250Z" fill="#A259FF"/>
<path d="M110 110C110 71.36 141.36 40 180 40H250V180H180C141.36 180 110 148.64 110 110Z" fill="#F24E1E"/>
<path d="M250 40H320C358.64 40 390 71.36 390 110C390 148.64 358.64 180 320 180H250V40Z" fill="#FF7262"/>
<path d="M390 250C390 288.64 358.64 320 320 320C281.36 320 250 288.64 250 250C250 211.36 281.36 180 320 180C358.64 180 390 211.36 390 250Z" fill="#1ABCFE"/>
</g>
<defs>
<clipPath id="clip0_125_68">
<rect width="280" height="420" fill="white" transform="translate(110 40)"/>
</clipPath>
</defs>
</svg>
