<svg width="500" height="500" viewBox="0 0 500 500" fill="none" xmlns="http://www.w3.org/2000/svg">
<rect width="500" height="500" rx="120" fill="white"/>
<path d="M117.464 397.013L87.9719 66.25H412.028L382.497 396.961L249.803 433.75L117.464 397.013Z" fill="#E44F26"/>
<path d="M250 405.636L357.231 375.908L382.457 93.3005H250V405.636Z" fill="#F1662A"/>
<path d="M250 215.967H196.319L192.618 174.426H250V133.857H148.281L149.253 144.751L159.214 256.536H250V215.967ZM250 321.321L249.816 321.374L204.64 309.181L201.753 276.828H161.026L166.709 340.51L249.816 363.584L250 363.531V321.321Z" fill="#EBEBEB"/>
<path d="M249.856 215.967V256.536H299.809L295.111 309.154L249.856 321.361V363.571L333.029 340.51L333.632 333.659L343.161 226.861L344.159 215.967H249.856ZM249.856 133.857V174.426H347.847L348.661 165.318L350.511 144.751L351.482 133.857H249.856Z" fill="white"/>
</svg>
