<svg width="60" height="60" viewBox="0 0 60 60" fill="none" xmlns="http://www.w3.org/2000/svg">
<path d="M3.75 3.75H56.25V56.25H3.75V3.75Z" fill="#F5DE19"/>
<path d="M39.0169 44.7655C39.4642 45.6741 40.1592 46.4378 41.0217 46.9686C41.8842 47.4994 42.8792 47.7756 43.8919 47.7655C45.9356 47.7655 47.2425 46.7436 47.2425 45.328C47.2425 43.6405 45.9 43.0368 43.65 42.0524L42.4162 41.5236C38.8537 40.0068 36.4912 38.1074 36.4912 34.0911C36.4912 30.3918 39.3037 27.5736 43.7156 27.5736C45.1438 27.4705 46.5708 27.7901 47.8185 28.4927C49.0662 29.1952 50.0795 30.2496 50.7319 31.5243L46.875 33.9899C46.6238 33.3579 46.1864 32.8171 45.6208 32.4394C45.0552 32.0617 44.3882 31.8648 43.7081 31.8749C43.4114 31.8452 43.1118 31.8776 42.8283 31.9701C42.5448 32.0626 42.2837 32.2131 42.0617 32.4121C41.8396 32.6111 41.6614 32.8541 41.5384 33.1258C41.4155 33.3974 41.3504 33.6917 41.3475 33.9899C41.3475 35.4693 42.2644 36.0693 44.3812 36.9899L45.615 37.5186C49.8075 39.3168 52.1775 41.1486 52.1775 45.268C52.1775 49.7099 48.6881 52.1436 44.0025 52.1436C42.1768 52.26 40.3565 51.8454 38.7612 50.9501C37.1658 50.0548 35.8637 48.717 35.0119 47.098L39.0169 44.7655ZM21.5887 45.193C22.3631 46.5674 23.0681 47.7299 24.7631 47.7299C26.3831 47.7299 27.4069 47.0961 27.4069 44.6305V27.8549H32.34V44.6961C32.34 49.8036 29.34 52.1286 24.9731 52.1286C23.4295 52.213 21.8965 51.8283 20.5757 51.0252C19.2548 50.222 18.2078 49.0379 17.5725 47.6286L21.5887 45.193Z" fill="black"/>
</svg>
