<svg width="500" height="500" viewBox="0 0 500 500" fill="none" xmlns="http://www.w3.org/2000/svg">
<rect width="500" height="500" rx="120" fill="white"/>
<path d="M66.25 66.25H433.75V433.75H66.25V66.25Z" fill="#F5DE19"/>
<path d="M313.118 353.359C316.249 359.72 321.114 365.066 327.152 368.781C333.189 372.497 340.154 374.43 347.243 374.359C361.549 374.359 370.698 367.206 370.698 357.297C370.698 345.484 361.3 341.258 345.55 334.368L336.914 330.666C311.976 320.048 295.439 306.753 295.439 278.639C295.439 252.743 315.126 233.016 346.009 233.016C356.007 232.294 365.995 234.532 374.729 239.45C383.464 244.368 390.556 251.748 395.123 260.671L368.125 277.93C366.367 273.506 363.305 269.721 359.346 267.077C355.387 264.433 350.717 263.055 345.957 263.125C343.88 262.917 341.783 263.144 339.798 263.792C337.814 264.439 335.986 265.493 334.432 266.886C332.877 268.279 331.63 269.98 330.769 271.881C329.908 273.783 329.453 275.843 329.433 277.93C329.433 288.286 335.851 292.486 350.669 298.93L359.305 302.631C388.653 315.218 405.243 328.041 405.243 356.877C405.243 387.97 380.817 405.006 348.018 405.006C335.238 405.821 322.495 402.919 311.328 396.652C300.161 390.385 291.046 381.02 285.083 369.687L313.118 353.359ZM191.121 356.352C196.542 365.973 201.477 374.11 213.342 374.11C224.682 374.11 231.848 369.674 231.848 352.414V234.985H266.38V352.874C266.38 388.626 245.38 404.901 214.812 404.901C204.007 405.492 193.276 402.799 184.03 397.177C174.783 391.555 167.455 383.266 163.008 373.401L191.121 356.352Z" fill="black"/>
</svg>
