<svg width="500" height="500" viewBox="0 0 500 500" fill="none" xmlns="http://www.w3.org/2000/svg">
<rect width="500" height="500" rx="120" fill="white"/>
<path d="M242.501 40.0006C239.421 40.0006 237.076 40.0181 236.236 40.1231C234.114 40.3352 231.991 40.5277 229.865 40.7006C170.24 46.0556 114.361 78.238 78.9741 127.71C59.4043 154.862 46.6822 186.339 41.8901 219.463C40.21 230.995 40 234.408 40 250.035C40 265.663 40.21 269.093 41.8901 280.625C53.3006 359.48 109.443 425.735 185.554 450.288C199.187 454.663 213.555 457.673 229.9 459.475C236.253 460.175 263.764 460.175 270.135 459.475C298.328 456.36 322.234 449.378 345.79 437.355C349.413 435.5 350.113 435.01 349.623 434.59C349.273 434.363 333.872 413.713 315.409 388.74L281.825 343.38L239.753 281.115C225.756 260.282 211.627 239.539 197.367 218.885C197.209 218.85 197.052 246.518 196.964 280.31C196.842 339.46 196.789 341.823 196.054 343.223C195.341 344.863 194.061 346.192 192.449 346.968C191.136 347.615 189.999 347.738 183.786 347.738H176.663L174.773 346.548C173.605 345.815 172.656 344.782 172.025 343.555L171.15 341.7L171.255 259.398L171.378 177.06L172.638 175.45C173.498 174.444 174.529 173.597 175.683 172.948C177.363 172.125 178.028 172.055 185.134 172.055C193.499 172.055 194.899 172.37 197.069 174.75C214.1 200.095 230.988 225.534 247.734 251.068C275.339 292.904 302.961 334.729 330.6 376.543L363.851 426.925L365.531 425.823C381.54 415.186 396.054 402.455 408.688 387.97C435.145 357.687 452.305 320.416 458.11 280.625C459.79 269.075 460 265.68 460 250.035C460 234.408 459.79 230.995 458.11 219.463C446.699 140.608 390.575 74.353 314.464 49.8006C300.233 45.2765 285.58 42.2099 270.73 40.6481C261.333 40.2033 251.926 39.9874 242.518 40.0006H242.501ZM313.711 166.298C319.784 166.298 320.852 166.385 322.217 167.12C323.194 167.614 324.064 168.296 324.776 169.129C325.488 169.961 326.028 170.926 326.364 171.968C326.679 173.018 326.767 195.855 326.679 247.288L326.574 321.103L313.554 301.153L300.498 281.203V227.548C300.498 192.863 300.673 173.35 300.901 172.423C301.194 171.328 301.707 170.305 302.408 169.414C303.109 168.524 303.983 167.785 304.979 167.243C306.659 166.368 307.254 166.298 313.729 166.298H313.711Z" fill="black"/>
</svg>
