<svg width="500" height="500" viewBox="0 0 500 500" fill="none" xmlns="http://www.w3.org/2000/svg">
<rect width="500" height="500" rx="120" fill="white"/>
<path d="M248.491 67.5625C155.303 67.5625 161.196 107.856 161.196 107.856V149.725H249.816V162.85H125.903C125.903 162.85 66.25 155.5 66.25 250.066C66.25 344.631 118.921 340.786 118.921 340.786H149.331V296.673C149.331 296.673 147.625 244.002 200.519 244.002H289.27C289.27 244.002 338.777 244.789 338.777 196.069V116.125C338.777 116.125 346.285 67.405 248.976 67.405L248.491 67.5625ZM199.508 95.6107C202.659 95.5312 205.762 96.3877 208.426 98.072C211.089 99.7564 213.194 102.193 214.473 105.073C215.752 107.953 216.148 111.148 215.611 114.254C215.074 117.359 213.628 120.236 211.456 122.52C209.285 124.803 206.484 126.392 203.41 127.084C200.335 127.776 197.124 127.541 194.184 126.408C191.243 125.276 188.704 123.297 186.888 120.721C185.072 118.145 184.06 115.089 183.981 111.938V111.676C183.981 107.45 185.66 103.397 188.648 100.409C191.636 97.4206 195.689 95.7419 199.915 95.7419L199.508 95.6107Z" fill="url(#paint0_linear_509_8)"/>
<path d="M251.115 432.569C344.303 432.569 338.41 392.144 338.41 392.144V350.406H249.803V337.281H374.097C374.097 337.281 433.75 343.949 433.75 249.934C433.75 155.92 381.079 159.214 381.079 159.214H350.275V202.75C350.275 202.75 351.981 255.421 299.087 255.421H210.297C210.297 255.421 160.75 254.672 160.75 303.392V383.875C160.75 383.875 153.242 432.595 250.551 432.595H251.076L251.115 432.569ZM300.098 404.389C296.947 404.469 293.844 403.612 291.18 401.928C288.517 400.244 286.412 397.807 285.133 394.927C283.854 392.047 283.458 388.852 283.995 385.746C284.532 382.641 285.978 379.764 288.15 377.48C290.321 375.197 293.122 373.608 296.196 372.916C299.271 372.224 302.482 372.459 305.423 373.591C308.364 374.724 310.903 376.703 312.719 379.279C314.535 381.855 315.546 384.911 315.625 388.062V388.456C315.625 392.681 313.946 396.734 310.958 399.722C307.97 402.711 303.917 404.389 299.691 404.389H300.098Z" fill="url(#paint1_linear_509_8)"/>
<defs>
<linearGradient id="paint0_linear_509_8" x1="102.569" y1="103.301" x2="276.956" y2="277.293" gradientUnits="userSpaceOnUse">
<stop stop-color="#387EB8"/>
<stop offset="1" stop-color="#366994"/>
</linearGradient>
<linearGradient id="paint1_linear_509_8" x1="205.736" y1="216.644" x2="404.976" y2="390.584" gradientUnits="userSpaceOnUse">
<stop stop-color="#FFE052"/>
<stop offset="1" stop-color="#FFC331"/>
</linearGradient>
</defs>
</svg>
