<svg width="500" height="500" viewBox="0 0 500 500" fill="none" xmlns="http://www.w3.org/2000/svg">
<rect width="500" height="500" rx="120" fill="white"/>
<path d="M250 282.471C268.122 282.471 282.812 267.781 282.812 249.659C282.812 231.537 268.122 216.846 250 216.846C231.878 216.846 217.188 231.537 217.188 249.659C217.188 267.781 231.878 282.471 250 282.471Z" fill="#00D8FF"/>
<path d="M250 324.891C210.561 325.845 171.221 320.529 133.45 309.141C116.002 303.61 99.7284 294.897 85.4519 283.442C80.0041 279.529 75.4673 274.484 72.1529 268.652C68.8384 262.821 66.8247 256.342 66.25 249.659C66.25 227.963 90.085 206.701 130.011 192.788C168.792 180.46 209.311 174.486 250 175.096C290.145 174.535 330.122 180.401 368.414 192.473C385.218 197.83 400.939 206.122 414.85 216.964C420.205 220.695 424.673 225.558 427.94 231.208C431.206 236.858 433.189 243.157 433.75 249.659C433.75 272.207 407.106 295.058 364.188 309.259C327.148 320.276 288.638 325.548 250 324.891ZM250 190.793C211.073 190.273 172.311 195.953 135.169 207.619C98.4194 220.442 81.9475 237.977 81.9475 249.619C81.9475 261.799 99.6531 280.949 138.529 294.244C174.663 305.084 212.287 310.129 250 309.194C286.965 309.855 323.814 304.853 359.266 294.362C399.625 280.988 418 261.812 418 249.659C417.338 245.488 415.818 241.5 413.536 237.946C411.254 234.393 408.261 231.351 404.744 229.013C392.298 219.394 378.254 212.046 363.256 207.304C326.624 195.804 288.39 190.23 250 190.793Z" fill="#00D8FF"/>
<path d="M175.45 413.314C169.327 413.455 163.277 411.969 157.915 409.009C139.12 398.168 132.61 366.904 140.498 325.364C149.195 285.609 164.265 247.523 185.123 212.581C204.689 177.525 229.737 145.826 259.319 118.684C272.354 106.802 287.391 97.3241 303.734 90.6888C309.645 87.9187 316.093 86.4827 322.621 86.4827C329.149 86.4827 335.597 87.9187 341.508 90.6888C361.051 101.95 367.521 136.443 358.399 180.713C349.434 218.311 334.755 254.311 314.877 287.459C296 322.1 271.74 353.524 243.004 380.554C229.496 392.902 213.819 402.643 196.765 409.285C189.938 411.819 182.731 413.181 175.45 413.314ZM198.721 220.377C178.824 253.837 164.381 290.251 155.933 328.251C148.675 366.511 155.644 389.519 165.777 395.373C176.277 401.449 201.766 395.688 232.714 368.65C260.146 342.754 283.301 312.675 301.319 279.531C320.362 247.841 334.442 213.423 343.069 177.471C351.653 135.799 344.238 110.284 333.711 104.221C329.766 102.709 325.55 102.032 321.33 102.233C317.11 102.434 312.977 103.509 309.194 105.389C294.647 111.392 281.273 119.913 269.688 130.563C241.425 156.56 217.498 186.907 198.813 220.456L198.721 220.377Z" fill="#00D8FF"/>
<path d="M324.511 413.485C306.726 413.485 284.138 402.722 260.618 382.497C230.519 355.109 205.047 323.033 185.189 287.511C164.592 253.05 149.642 215.515 140.905 176.329C137.116 159.089 136.414 141.314 138.831 123.829C139.39 117.343 141.365 111.058 144.617 105.418C147.869 99.7785 152.319 94.9206 157.652 91.1875C177.169 79.8868 210.284 91.5025 244.081 121.506C272.176 148.047 296.034 178.74 314.824 212.515C335.408 246.172 350.515 282.885 359.581 321.282C363.533 339.154 364.142 357.604 361.379 375.698C360.721 382.371 358.628 388.823 355.244 394.611C351.859 400.399 347.263 405.387 341.77 409.232C336.496 412.156 330.539 413.623 324.511 413.485ZM198.773 279.61C217.823 313.557 242.155 344.255 270.856 370.553C300.374 395.95 323.789 401.41 333.856 395.491C344.356 389.387 352.099 364.476 344.119 324.169C335.376 287.51 320.887 252.466 301.187 220.337C283.257 188.012 260.483 158.622 233.659 133.187C201.844 104.942 176.041 98.6293 165.527 104.719C162.251 107.382 159.562 110.695 157.63 114.45C155.699 118.205 154.567 122.319 154.306 126.533C152.219 142.127 152.899 157.966 156.314 173.324C164.718 210.797 179.056 246.687 198.786 279.636L198.773 279.61Z" fill="#00D8FF"/>
</svg>
