<svg width="60" height="60" viewBox="0 0 60 60" fill="none" xmlns="http://www.w3.org/2000/svg">
<path d="M30 34.6387C32.5888 34.6387 34.6875 32.54 34.6875 29.9512C34.6875 27.3623 32.5888 25.2637 30 25.2637C27.4112 25.2637 25.3125 27.3623 25.3125 29.9512C25.3125 32.54 27.4112 34.6387 30 34.6387Z" fill="#00D8FF"/>
<path d="M30 40.6984C24.3659 40.8347 18.7459 40.0752 13.35 38.4484C10.8574 37.6582 8.53263 36.4135 6.49313 34.7771C5.71487 34.2181 5.06676 33.4974 4.59327 32.6643C4.11977 31.8312 3.83211 30.9056 3.75 29.9509C3.75 26.8515 7.155 23.814 12.8587 21.8265C18.3989 20.0654 24.1874 19.2119 30 19.299C35.7351 19.2189 41.446 20.057 46.9162 21.7815C49.3168 22.5468 51.5627 23.7314 53.55 25.2803C54.315 25.8132 54.9533 26.5079 55.4199 27.315C55.8865 28.1222 56.1699 29.022 56.25 29.9509C56.25 33.1721 52.4438 36.4365 46.3125 38.4653C41.0211 40.0391 35.5197 40.7922 30 40.6984ZM30 21.5415C24.439 21.4672 18.9015 22.2786 13.5956 23.9453C8.34562 25.7771 5.9925 28.2821 5.9925 29.9453C5.9925 31.6853 8.52188 34.4209 14.0756 36.3203C19.2376 37.8687 24.6124 38.5896 30 38.4559C35.2808 38.5503 40.5449 37.8358 45.6094 36.3371C51.375 34.4265 54 31.6871 54 29.9509C53.9054 29.3551 53.6883 28.7853 53.3623 28.2777C53.0364 27.77 52.6087 27.3355 52.1063 27.0015C50.3283 25.6274 48.3219 24.5776 46.1794 23.9003C40.9463 22.2573 35.4843 21.461 30 21.5415Z" fill="#00D8FF"/>
<path d="M19.35 53.3309C18.4753 53.351 17.6109 53.1387 16.845 52.7159C14.16 51.1671 13.23 46.7009 14.3569 40.7665C15.5993 35.0873 17.7521 29.6464 20.7319 24.6546C23.527 19.6467 27.1053 15.1182 31.3312 11.2409C33.1934 9.54345 35.3416 8.1894 37.6763 7.2415C38.5207 6.84577 39.4418 6.64063 40.3744 6.64062C41.3069 6.64063 42.2281 6.84577 43.0725 7.2415C45.8644 8.85025 46.7888 13.7778 45.4856 20.1021C44.2048 25.4732 42.1079 30.6161 39.2681 35.3515C36.5714 40.3003 33.1057 44.7894 29.0006 48.6509C27.0708 50.4148 24.8313 51.8064 22.395 52.7553C21.4197 53.1173 20.3902 53.3119 19.35 53.3309ZM22.6744 25.7684C19.8321 30.5484 17.7687 35.7503 16.5619 41.179C15.525 46.6446 16.5206 49.9315 17.9681 50.7678C19.4681 51.6359 23.1094 50.8128 27.5306 46.9503C31.4494 43.2508 34.7573 38.9538 37.3313 34.219C40.0518 29.6918 42.0632 24.7749 43.2956 19.639C44.5219 13.6859 43.4625 10.0409 41.9588 9.17463C41.3951 8.95868 40.7929 8.86201 40.19 8.89073C39.5871 8.91946 38.9968 9.07295 38.4563 9.3415C36.3782 10.199 34.4676 11.4164 32.8125 12.9378C28.775 16.6517 25.3569 20.987 22.6875 25.7796L22.6744 25.7684Z" fill="#00D8FF"/>
<path d="M40.6444 53.3547C38.1037 53.3547 34.8769 51.8172 31.5169 48.9278C27.2169 45.0152 23.5781 40.4329 20.7412 35.3585C17.7989 30.4354 15.6631 25.0732 14.415 19.4753C13.8737 17.0125 13.7734 14.4732 14.1187 11.9753C14.1986 11.0487 14.4807 10.1509 14.9453 9.34521C15.4099 8.5395 16.0455 7.84553 16.8075 7.31222C19.5956 5.69784 24.3262 7.35722 29.1544 11.6435C33.168 15.4351 36.5763 19.8198 39.2606 24.6447C42.2012 29.4529 44.3593 34.6976 45.6544 40.1828C46.219 42.736 46.3061 45.3717 45.9112 47.9566C45.8173 48.9099 45.5183 49.8315 45.0348 50.6584C44.5513 51.4853 43.8947 52.1979 43.11 52.7472C42.3565 53.1648 41.5056 53.3745 40.6444 53.3547ZM22.6819 34.2297C25.4033 39.0793 28.8793 43.4648 32.9794 47.2216C37.1962 50.8497 40.5412 51.6297 41.9794 50.7841C43.4794 49.9122 44.5856 46.3535 43.4456 40.5953C42.1966 35.3584 40.1267 30.352 37.3125 25.7622C34.7509 21.1443 31.4976 16.9457 27.6656 13.3122C23.1206 9.27722 19.4344 8.37534 17.9325 9.24534C17.4644 9.62574 17.0802 10.0991 16.8043 10.6354C16.5284 11.1718 16.3667 11.7596 16.3294 12.3616C16.0313 14.5893 16.1284 16.852 16.6162 19.046C17.8168 24.3994 19.8651 29.5265 22.6837 34.2335L22.6819 34.2297Z" fill="#00D8FF"/>
</svg>
