<svg width="500" height="500" viewBox="0 0 500 500" fill="none" xmlns="http://www.w3.org/2000/svg">
<rect width="500" height="500" rx="120" fill="white"/>
<g clip-path="url(#clip0_125_67)">
<path d="M382.694 270.632C371.153 270.648 359.767 273.287 349.396 278.35C346.149 272.961 343.641 267.161 341.941 261.104C340.964 256.356 340.738 251.484 341.271 246.666C342.393 241.365 343.849 236.139 345.629 231.021C345.563 230.352 344.828 227.189 337.439 227.084C330.049 226.979 323.684 228.488 323.001 230.444C321.718 234.016 320.687 237.673 319.917 241.39C313.801 256.477 306.273 270.953 297.434 284.624C292.481 276.505 290.444 266.94 291.659 257.507C292.781 252.206 294.236 246.981 296.016 241.862C295.951 241.193 295.216 238.03 287.826 237.925C280.437 237.82 274.071 239.329 273.389 241.285C272.706 243.241 271.84 247.847 270.304 252.231C268.769 256.615 250.84 296.672 246.141 307.002C243.726 312.252 241.639 316.531 240.169 319.418C240.1 319.606 240.012 319.786 239.907 319.956L237.899 323.789V323.854C236.888 325.666 235.812 327.346 235.274 327.346C234.335 323.596 234.38 319.667 235.405 315.94C238.03 302.041 244.461 280.437 244.396 279.689C244.396 279.282 245.603 275.528 240.235 273.586C238.99 272.993 237.592 272.801 236.233 273.036C234.875 273.271 233.622 273.922 232.649 274.898C232.176 274.898 231.848 276.04 231.848 276.04C231.848 276.04 237.689 251.746 220.705 251.746C214.091 253.076 207.81 255.715 202.232 259.509C196.653 263.302 191.889 268.173 188.221 273.835C183.653 276.316 173.928 281.618 163.519 287.327C159.582 289.546 155.461 291.764 151.641 293.89C151.379 293.627 151.103 293.286 150.841 293.024C130.169 271 92.1719 255.46 93.8125 225.994C94.4162 215.258 98.1044 187.066 166.774 152.822C223.291 124.971 268.27 132.689 276.053 149.804C287.196 174.242 251.956 219.616 193.563 226.191C187.102 227.502 180.43 227.344 174.04 225.728C167.649 224.113 161.703 221.082 156.642 216.859C153.558 213.499 153.085 213.302 151.943 213.972C150.066 214.982 151.274 218.001 151.943 219.747C154.171 223.778 157.184 227.322 160.804 230.169C164.425 233.017 168.579 235.109 173.022 236.324C195.994 241.288 219.944 238.914 241.495 229.538C276.933 215.849 304.495 177.786 296.41 145.906C288.286 113.552 234.591 102.882 183.771 120.968C151.94 131.679 122.528 148.55 97.2119 170.62C69.2162 196.804 64.7931 219.55 66.6044 229.092C73.1669 262.928 119.774 284.939 138.424 301.279C137.582 301.758 136.733 302.227 135.878 302.684C126.546 307.317 90.9775 325.915 82.0656 345.576C71.9987 367.889 83.68 383.836 91.3975 385.988C103.026 388.772 115.234 387.855 126.317 383.365C137.399 378.876 146.803 371.038 153.216 360.946C158.677 352.575 162.034 343.008 163 333.06C163.967 323.112 162.515 313.078 158.768 303.812C158.705 303.663 158.616 303.525 158.506 303.406L165.816 299.114C170.258 296.488 174.757 293.958 179.309 291.527C176.576 299.408 174.972 307.636 174.544 315.966C173.617 328.734 177.524 341.383 185.491 351.404C186.703 352.447 188.11 353.24 189.631 353.735C191.152 354.231 192.756 354.42 194.35 354.291C202.225 354.291 205.834 347.729 209.785 339.932C214.615 330.404 218.973 319.326 218.973 319.326C218.973 319.326 213.539 349.264 228.304 349.264C233.673 349.264 239.106 342.282 241.534 338.764V338.83L241.941 338.161L242.808 336.756V336.625C244.96 332.871 249.79 324.34 256.969 310.178C266.236 291.921 275.161 269.097 275.161 269.097C276.021 274.113 277.21 279.067 278.718 283.928C280.879 289.82 283.436 295.56 286.369 301.109C284.217 304.127 282.878 305.807 282.878 305.807L282.944 305.873C281.198 308.157 279.321 310.637 277.234 313.052C271.025 319.879 265.265 327.099 259.988 334.669C259.204 335.941 258.935 337.463 259.235 338.927C259.535 340.39 260.381 341.684 261.603 342.544C264.365 343.982 267.515 344.502 270.593 344.027C275.232 343.766 279.794 342.723 284.086 340.943C288.233 339.483 292.146 337.427 295.701 334.84C299.366 332.301 302.316 328.862 304.268 324.853C306.219 320.844 307.107 316.401 306.844 311.95C306.432 306.343 304.999 300.859 302.618 295.767C303.288 294.822 303.931 293.89 304.561 292.945C312.023 281.807 318.748 270.193 324.694 258.177C325.555 263.193 326.743 268.147 328.251 273.008C330.034 278.1 332.229 283.038 334.814 287.774C326.229 294.378 319.468 303.06 315.166 313C310.939 325.219 314.221 330.719 320.416 331.992C323.805 332.225 327.195 331.531 330.22 329.984C334.668 328.522 338.858 326.369 342.636 323.605C346.62 321.254 349.957 317.949 352.347 313.987C354.737 310.026 356.104 305.533 356.326 300.912C356.028 296.299 354.986 291.765 353.241 287.485C364.569 283.059 376.852 281.648 388.889 283.39C420.835 287.144 427.148 307.081 425.941 315.481C425.374 318.458 424.177 321.281 422.429 323.757C420.682 326.234 418.424 328.308 415.808 329.839C413.59 331.244 412.855 331.716 413.052 332.727C413.314 334.21 414.364 334.131 416.268 333.869C421.082 332.372 425.33 329.451 428.451 325.491C431.573 321.532 433.42 316.719 433.75 311.687C434.761 292 415.966 270.409 382.733 270.606L382.694 270.632ZM136.206 353.687C125.601 365.237 110.836 369.595 104.457 365.907C97.6056 361.969 100.296 344.907 113.316 332.674C121.04 325.722 129.387 319.496 138.254 314.076C139.803 313.131 142.086 311.792 144.816 310.139L145.551 309.732L147.166 308.721C149.492 316.515 149.703 324.787 147.777 332.689C145.851 340.591 141.857 347.838 136.206 353.687ZM213.394 301.187C209.706 310.178 201.989 333.212 197.29 331.926C193.261 330.85 190.728 313.394 196.489 296.147C199.399 287.845 203.636 280.07 209.037 273.126C214.812 266.682 221.191 264.529 222.726 267.154C221.325 278.9 218.18 290.37 213.394 301.187ZM277.09 331.664C275.541 332.464 274.071 332.976 273.402 332.609C272.929 332.346 274.071 331.296 274.071 331.296C274.071 331.296 282.064 322.699 285.214 318.814C287.026 316.531 289.152 313.853 291.462 310.821V311.687C291.462 321.951 281.526 328.868 277.103 331.69L277.09 331.664ZM326.23 320.455C325.088 319.654 325.285 316.964 329.118 308.577C331.782 303.19 335.505 298.396 340.064 294.481C340.763 296.467 341.126 298.556 341.14 300.662C341.192 305.145 339.758 309.519 337.064 313.102C334.369 316.684 330.564 319.274 326.243 320.468L326.23 320.455Z" fill="#CD6799"/>
</g>
<defs>
<clipPath id="clip0_125_67">
<rect width="420" height="420" fill="white" transform="translate(40 40)"/>
</clipPath>
</defs>
</svg>
