<svg width="500" height="500" viewBox="0 0 500 500" fill="none" xmlns="http://www.w3.org/2000/svg">
<rect width="500" height="500" rx="120" fill="white"/>
<path d="M158.125 219.812C170.375 170.812 201 146.312 250 146.312C323.5 146.312 332.688 201.437 369.438 210.625C393.938 216.75 415.375 207.562 433.75 183.062C421.5 232.062 390.875 256.563 341.875 256.563C268.375 256.563 259.187 201.438 222.437 192.25C197.937 186.125 176.5 195.312 158.125 219.812ZM66.25 330.063C78.5 281.063 109.125 256.563 158.125 256.563C231.625 256.563 240.813 311.688 277.563 320.875C302.063 327 323.5 317.812 341.875 293.312C329.625 342.312 299 366.813 250 366.813C176.5 366.813 167.313 311.688 130.563 302.5C106.063 296.375 84.625 305.563 66.25 330.063Z" fill="#44A8B3"/>
</svg>
