<svg width="60" height="60" viewBox="0 0 60 60" fill="none" xmlns="http://www.w3.org/2000/svg">
<path d="M53.79 3.75H6.21C4.85138 3.75 3.75 4.85138 3.75 6.21V53.79C3.75 55.1486 4.85138 56.25 6.21 56.25H53.79C55.1486 56.25 56.25 55.1486 56.25 53.79V6.21C56.25 4.85138 55.1486 3.75 53.79 3.75Z" fill="#3178C6"/>
<path fill-rule="evenodd" clip-rule="evenodd" d="M34.2094 44.5487V50.3012C35.2546 50.8171 36.3684 51.1802 37.5169 51.3794C38.844 51.6244 40.1911 51.7449 41.5406 51.7394C42.8559 51.7456 44.1682 51.613 45.4556 51.3437C46.6115 51.1102 47.7144 50.6652 48.7087 50.0312C49.6319 49.4353 50.3927 48.6197 50.9231 47.6575C51.873 45.665 51.9984 43.3781 51.2719 41.2937C50.9653 40.5143 50.5085 39.8027 49.9275 39.1994C49.3038 38.5579 48.5954 38.0046 47.8219 37.555C46.9313 37.0334 46.006 36.5736 45.0525 36.1787C44.3025 35.8675 43.6275 35.565 43.0275 35.2712C42.4946 35.0161 41.9846 34.7156 41.5031 34.3731C41.126 34.1088 40.7985 33.78 40.5356 33.4019C40.3085 33.0586 40.1902 32.6547 40.1962 32.2431C40.1912 31.8643 40.2968 31.4922 40.5 31.1725C40.7207 30.8378 41.0151 30.5582 41.3606 30.355C41.783 30.1063 42.2426 29.9271 42.7219 29.8244C43.3103 29.6937 43.9117 29.6307 44.5144 29.6369C45.0213 29.6386 45.5274 29.6749 46.0294 29.7456C46.5714 29.8189 47.1077 29.9298 47.6344 30.0775C48.1701 30.226 48.694 30.414 49.2019 30.64C49.6947 30.8597 50.1661 31.1245 50.61 31.4312V26.0631C49.6858 25.7135 48.7274 25.4621 47.7506 25.3131C46.5711 25.1415 45.3801 25.0606 44.1881 25.0712C42.8852 25.0642 41.5861 25.2121 40.3181 25.5119C39.172 25.7738 38.0822 26.2393 37.1006 26.8862C36.1888 27.4937 35.4358 28.3109 34.905 29.2694C34.3424 30.3337 34.0641 31.5253 34.0969 32.7287C34.0553 34.3202 34.5795 35.8748 35.5762 37.1162C36.7991 38.4926 38.3411 39.5479 40.0669 40.1894C40.8544 40.5144 41.5887 40.8325 42.27 41.1437C42.8847 41.4172 43.4754 41.7415 44.0362 42.1131C44.4886 42.4074 44.8858 42.7786 45.21 43.21C45.495 43.6013 45.6463 44.074 45.6412 44.5581C45.6438 44.9209 45.5507 45.2779 45.3712 45.5931C45.1718 45.9319 44.8916 46.216 44.5556 46.42C44.1352 46.6763 43.6752 46.8613 43.1944 46.9675C42.568 47.1075 41.9274 47.1736 41.2856 47.1644C40.0262 47.1621 38.7768 46.94 37.5937 46.5081C36.3578 46.0621 35.2116 45.3985 34.2094 44.5487ZM24.5456 30.2275H32.0456V25.4894H11.1337V30.2275H18.6V51.3287H24.5456V30.2275Z" fill="white"/>
</svg>
