<svg width="500" height="500" viewBox="0 0 500 500" fill="none" xmlns="http://www.w3.org/2000/svg">
<rect width="500" height="500" rx="120" fill="white"/>
<path d="M416.53 66.25H83.47C73.9597 66.25 66.25 73.9597 66.25 83.47V416.53C66.25 426.04 73.9597 433.75 83.47 433.75H416.53C426.04 433.75 433.75 426.04 433.75 416.53V83.47C433.75 73.9597 426.04 66.25 416.53 66.25Z" fill="#3178C6"/>
<path fill-rule="evenodd" clip-rule="evenodd" d="M279.466 351.837V392.104C286.782 395.715 294.579 398.257 302.618 399.651C311.908 401.366 321.338 402.21 330.784 402.171C339.991 402.215 349.177 401.287 358.189 399.402C366.281 397.767 374.001 394.652 380.961 390.214C387.423 386.043 392.749 380.334 396.462 373.598C403.111 359.65 403.988 343.642 398.903 329.052C396.757 323.596 393.56 318.614 389.493 314.391C385.127 309.901 380.168 306.028 374.753 302.881C368.519 299.229 362.042 296.011 355.368 293.247C350.118 291.068 345.393 288.951 341.193 286.894C337.462 285.108 333.892 283.005 330.522 280.607C327.882 278.757 325.59 276.455 323.749 273.809C322.159 271.405 321.331 268.579 321.374 265.697C321.339 263.046 322.078 260.441 323.5 258.203C325.045 255.861 327.106 253.903 329.524 252.481C332.481 250.74 335.698 249.486 339.053 248.766C343.172 247.851 347.382 247.411 351.601 247.454C355.149 247.466 358.692 247.72 362.206 248.215C366 248.728 369.754 249.504 373.441 250.538C377.19 251.577 380.858 252.893 384.413 254.476C387.863 256.013 391.163 257.867 394.27 260.014V222.437C387.801 219.99 381.092 218.23 374.254 217.187C365.997 215.986 357.66 215.42 349.317 215.494C340.197 215.445 331.103 216.481 322.227 218.579C314.204 220.412 306.576 223.67 299.704 228.199C293.321 232.451 288.051 238.172 284.335 244.881C280.397 252.332 278.449 260.673 278.678 269.097C278.387 280.237 282.057 291.12 289.034 299.809C297.594 309.444 308.388 316.831 320.468 321.321C325.981 323.596 331.121 325.823 335.89 328.002C340.193 329.916 344.328 332.186 348.254 334.787C351.42 336.847 354.201 339.446 356.47 342.466C358.465 345.204 359.524 348.514 359.489 351.902C359.507 354.442 358.855 356.941 357.599 359.147C356.203 361.519 354.241 363.507 351.889 364.936C348.946 366.73 345.727 368.025 342.361 368.768C337.976 369.748 333.492 370.211 328.999 370.146C320.183 370.13 311.438 368.575 303.156 365.552C294.504 362.43 286.481 357.785 279.466 351.837ZM211.819 251.588H264.319V218.421H117.936V251.588H170.2V399.297H211.819V251.588Z" fill="white"/>
</svg>
